<svg width="47" height="33" viewBox="0 0 47 33" fill="none" xmlns="http://www.w3.org/2000/svg">
<path d="M0.0317339 25.3277L7.11826 32.4188L14.2048 25.3277L7.11826 18.2365L0.0317339 25.3277Z" fill="#FE5F5F"/>
<path d="M8.92493 16.463L16.0115 23.5541L23.0981 16.463L16.0115 9.37191L8.92493 16.463Z" fill="#FE5F5F"/>
<path d="M-7.36332e-06 7.51038L7.08649 14.6016L14.173 7.51038L7.08649 0.419194L-7.36332e-06 7.51038Z" fill="#FE5F5F"/>
<path d="M23.0319 24.9085L30.1184 31.9996L37.205 24.9085L30.1184 17.8173L23.0319 24.9085Z" fill="#FE5F5F"/>
<path d="M31.9251 16.0438L39.0117 23.1349L46.0983 16.0438L39.0117 8.95272L31.9251 16.0438Z" fill="#FE5F5F"/>
<path d="M23 7.09119L30.0865 14.1824L37.173 7.09119L30.0865 4.34285e-06L23 7.09119Z" fill="#FE5F5F"/>
</svg>
